# xmcd CD database file
# Copyright (C) 1997 Ti Kan
# 
# Track frame offsets:
#     150
#     18225
#     33242
#     49405
#     61830
#     87295
#     97907
#     109982
#     118165
#     132080
#     147010
#     158612
#     170442
#     182632
#     194045
#     206740
#     221825
#     233650
#     245972
#     266210
#     279670
#     292412
#     309117
# 
# Disc length: 4377 seconds
# 
# Revision: 1
# Processed by: cddbd v1.4b41PL1 Copyright (c) Steve Scherf et al.
# Submitted via: DiscPlay 4.0.4
# 
DISCID=5e111717
DTITLE=Various Artist - Blues Roots
DYEAR=1900
DGENRE=
TTITLE0=Frisco Lines
TTITLE1=Fare You Well Baby Blues
TTITLE2=Long haired Doney
TTITLE3=Mean Stepfather
TTITLE4=Bald Eagle Train
TTITLE5=Don't Drive Me Away
TTITLE6=Long Tall Girl Got Stuck On Me
TTITLE7=Red River Blues
TTITLE8=Whistling Alex Moore Blues
TTITLE9=Texas Blues
TTITLE10=Take A walk
TTITLE11=Bear Cat Blues
TTITLE12=Snowing And Raining Blues
TTITLE13=Got A Date At Half Past Eight
TTITLE14=Struggle Here In Houston
TTITLE15=Listen At That Bull
TTITLE16=Trouble Blues
TTITLE17=Dream
TTITLE18=Sugar Daddy
TTITLE19=I'm Feeling Alright
TTITLE20=Sometimes I Cry
TTITLE21=Black Snake Blues
TTITLE22=Two Bugs And A Roach
EXTD=
EXTT0=
EXTT1=
EXTT2=
EXTT3=
EXTT4=
EXTT5=
EXTT6=
EXTT7=
EXTT8=
EXTT9=
EXTT10=
EXTT11=
EXTT12=
EXTT13=
EXTT14=
EXTT15=
EXTT16=
EXTT17=
EXTT18=
EXTT19=
EXTT20=
EXTT21=
EXTT22=
PLAYORDER=
